STARTFONT 2.1
FONT -Bitstream-Terminal-Medium-R-Narrow--25-180-100-100-C-90-DEC-DECtech
SIZE 18 100 100
FONTBOUNDINGBOX 9 25 0 -5

STARTPROPERTIES 28
CHARSET_REGISTRY "DEC"
CHARSET_ENCODING "DECtech"
CAP_HEIGHT 15
X_HEIGHT 12
AVERAGE_WIDTH 90
AVG_CAPITAL_WIDTH 90
AVG_LOWERCASE_WIDTH 90
FIGURE_WIDTH 9
SPACING "C"
FONTNAME_REGISTRY ""
FAMILY_NAME "Terminal"
FOUNDRY "Bitstream"
WEIGHT_NAME "Medium"
SETWIDTH_NAME "Narrow"
SLANT "R"
ADD_STYLE_NAME ""
PIXEL_SIZE 25
POINT_SIZE 180
RESOLUTION_X 100
RESOLUTION_Y 100
CHARSET_COLLECTIONS "DEC-DECtech"
FULL_NAME "Terminal Narrow"
COPYRIGHT "Copyright (c) 1988 Bitstream, Inc., Copyright 1990 Digital Equipment Corp."
WEIGHT 10
QUAD_WIDTH 9
DEFAULT_CHAR 159
FONT_DESCENT 5
FONT_ASCENT 20
ENDPROPERTIES

CHARS 181

STARTCHAR space
ENCODING 32
SWIDTH 360 0
DWIDTH 9 0
BBX 1 1 0 0
BITMAP
00
ENDCHAR

STARTCHAR exclam
ENCODING 33
SWIDTH 360 0
DWIDTH 9 0
BBX 3 15 3 0
BITMAP
40
40
40
40
40
40
40
40
40
40
00
00
40
E0
40
ENDCHAR

STARTCHAR quotedbl
ENCODING 34
SWIDTH 360 0
DWIDTH 9 0
BBX 4 4 2 11
BITMAP
90
90
90
90
ENDCHAR

STARTCHAR numbersign
ENCODING 35
SWIDTH 360 0
DWIDTH 9 0
BBX 6 16 2 -1
BITMAP
48
48
48
48
48
FC
48
48
48
FC
48
48
48
48
48
48
ENDCHAR

STARTCHAR dollar
ENCODING 36
SWIDTH 360 0
DWIDTH 9 0
BBX 6 20 2 -3
BITMAP
10
10
7C
84
84
80
80
40
40
30
08
08
04
04
84
84
F8
10
10
10
ENDCHAR

STARTCHAR percent
ENCODING 37
SWIDTH 360 0
DWIDTH 9 0
BBX 7 15 1 0
BITMAP
60
90
90
90
92
64
08
10
20
4C
92
12
12
12
0C
ENDCHAR

STARTCHAR ampersand
ENCODING 38
SWIDTH 360 0
DWIDTH 9 0
BBX 6 15 2 0
BITMAP
38
48
48
40
40
40
20
64
94
88
88
88
88
88
74
ENDCHAR

STARTCHAR quoteright
ENCODING 39
SWIDTH 360 0
DWIDTH 9 0
BBX 4 5 3 10
BITMAP
70
60
C0
80
80
ENDCHAR

STARTCHAR parenleft
ENCODING 40
SWIDTH 360 0
DWIDTH 9 0
BBX 4 17 3 -1
BITMAP
30
40
40
80
80
80
80
80
80
80
80
80
80
80
40
40
30
ENDCHAR

STARTCHAR parenright
ENCODING 41
SWIDTH 360 0
DWIDTH 9 0
BBX 4 17 2 -1
BITMAP
C0
20
20
10
10
10
10
10
10
10
10
10
10
10
20
20
C0
ENDCHAR

STARTCHAR asterisk
ENCODING 42
SWIDTH 360 0
DWIDTH 9 0
BBX 7 9 1 3
BITMAP
10
10
D6
38
10
38
44
44
82
ENDCHAR

STARTCHAR plus
ENCODING 43
SWIDTH 360 0
DWIDTH 9 0
BBX 7 9 1 2
BITMAP
10
10
10
10
FE
10
10
10
10
ENDCHAR

STARTCHAR comma
ENCODING 44
SWIDTH 360 0
DWIDTH 9 0
BBX 4 5 3 -3
BITMAP
70
60
40
80
80
ENDCHAR

STARTCHAR minus
ENCODING 45
SWIDTH 360 0
DWIDTH 9 0
BBX 7 1 1 6
BITMAP
FE
ENDCHAR

STARTCHAR period
ENCODING 46
SWIDTH 360 0
DWIDTH 9 0
BBX 3 3 3 0
BITMAP
40
E0
40
ENDCHAR

STARTCHAR slash
ENCODING 47
SWIDTH 360 0
DWIDTH 9 0
BBX 5 17 2 -1
BITMAP
08
08
08
10
10
10
10
20
20
20
40
40
40
80
80
80
80
ENDCHAR

STARTCHAR zero
ENCODING 48
SWIDTH 360 0
DWIDTH 9 0
BBX 6 15 1 0
BITMAP
30
48
48
84
84
84
84
84
84
84
84
84
48
48
30
ENDCHAR

STARTCHAR one
ENCODING 49
SWIDTH 360 0
DWIDTH 9 0
BBX 6 15 1 0
BITMAP
10
30
50
90
10
10
10
10
10
10
10
10
10
10
7C
ENDCHAR

STARTCHAR two
ENCODING 50
SWIDTH 360 0
DWIDTH 9 0
BBX 6 15 1 0
BITMAP
78
84
84
84
04
08
08
10
20
20
40
40
84
84
FC
ENDCHAR

STARTCHAR three
ENCODING 51
SWIDTH 360 0
DWIDTH 9 0
BBX 6 15 1 0
BITMAP
78
84
04
04
04
04
04
38
04
04
04
04
84
84
78
ENDCHAR

STARTCHAR four
ENCODING 52
SWIDTH 360 0
DWIDTH 9 0
BBX 7 15 1 0
BITMAP
04
0C
14
14
24
24
44
44
84
FE
04
04
04
04
04
ENDCHAR

STARTCHAR five
ENCODING 53
SWIDTH 360 0
DWIDTH 9 0
BBX 6 15 1 0
BITMAP
FC
80
80
80
80
80
F8
84
04
04
04
04
04
84
78
ENDCHAR

STARTCHAR six
ENCODING 54
SWIDTH 360 0
DWIDTH 9 0
BBX 6 15 1 0
BITMAP
38
40
40
80
80
80
F8
84
84
84
84
84
84
84
78
ENDCHAR

STARTCHAR seven
ENCODING 55
SWIDTH 360 0
DWIDTH 9 0
BBX 6 15 1 0
BITMAP
FC
84
84
08
08
08
10
10
10
20
20
20
40
40
40
ENDCHAR

STARTCHAR eight
ENCODING 56
SWIDTH 360 0
DWIDTH 9 0
BBX 6 15 1 0
BITMAP
78
84
84
84
84
84
84
78
84
84
84
84
84
84
78
ENDCHAR

STARTCHAR nine
ENCODING 57
SWIDTH 360 0
DWIDTH 9 0
BBX 6 15 1 0
BITMAP
78
84
84
84
84
84
84
84
7C
04
04
04
08
08
70
ENDCHAR

STARTCHAR colon
ENCODING 58
SWIDTH 360 0
DWIDTH 9 0
BBX 3 10 3 0
BITMAP
40
E0
40
00
00
00
00
40
E0
40
ENDCHAR

STARTCHAR semicolon
ENCODING 59
SWIDTH 360 0
DWIDTH 9 0
BBX 4 13 2 -3
BITMAP
20
70
20
00
00
00
00
00
70
60
40
80
80
ENDCHAR

STARTCHAR less
ENCODING 60
SWIDTH 360 0
DWIDTH 9 0
BBX 6 11 1 1
BITMAP
04
08
10
20
40
80
40
20
10
08
04
ENDCHAR

STARTCHAR equal
ENCODING 61
SWIDTH 360 0
DWIDTH 9 0
BBX 7 4 1 5
BITMAP
FE
00
00
FE
ENDCHAR

STARTCHAR greater
ENCODING 62
SWIDTH 360 0
DWIDTH 9 0
BBX 6 11 2 1
BITMAP
80
40
20
10
08
04
08
10
20
40
80
ENDCHAR

STARTCHAR question
ENCODING 63
SWIDTH 360 0
DWIDTH 9 0
BBX 6 15 1 0
BITMAP
78
84
84
04
04
04
08
10
10
10
00
00
10
38
10
ENDCHAR

STARTCHAR at
ENCODING 64
SWIDTH 360 0
DWIDTH 9 0
BBX 8 17 1 -2
BITMAP
38
44
84
84
84
9C
A4
A4
A4
A4
A4
9F
80
80
80
42
3C
ENDCHAR

STARTCHAR A
ENCODING 65
SWIDTH 360 0
DWIDTH 9 0
BBX 8 15 0 0
BITMAP
18
18
18
24
24
24
42
42
42
7E
42
42
42
42
C3
ENDCHAR

STARTCHAR B
ENCODING 66
SWIDTH 360 0
DWIDTH 9 0
BBX 7 15 1 0
BITMAP
FC
42
42
42
42
42
42
7C
42
42
42
42
42
42
FC
ENDCHAR

STARTCHAR C
ENCODING 67
SWIDTH 360 0
DWIDTH 9 0
BBX 6 15 2 0
BITMAP
74
8C
84
80
80
80
80
80
80
80
80
80
84
84
78
ENDCHAR

STARTCHAR D
ENCODING 68
SWIDTH 360 0
DWIDTH 9 0
BBX 7 15 1 0
BITMAP
FC
42
42
42
42
42
42
42
42
42
42
42
42
42
FC
ENDCHAR

STARTCHAR E
ENCODING 69
SWIDTH 360 0
DWIDTH 9 0
BBX 7 15 1 0
BITMAP
FE
42
42
40
40
40
44
7C
44
40
40
40
42
42
FE
ENDCHAR

STARTCHAR F
ENCODING 70
SWIDTH 360 0
DWIDTH 9 0
BBX 7 15 1 0
BITMAP
FE
42
42
40
40
40
44
7C
44
40
40
40
40
40
E0
ENDCHAR

STARTCHAR G
ENCODING 71
SWIDTH 360 0
DWIDTH 9 0
BBX 7 15 1 0
BITMAP
74
8C
84
84
80
80
80
80
8E
84
84
84
84
84
7C
ENDCHAR

STARTCHAR H
ENCODING 72
SWIDTH 360 0
DWIDTH 9 0
BBX 8 15 0 0
BITMAP
E7
42
42
42
42
42
42
7E
42
42
42
42
42
42
E7
ENDCHAR

STARTCHAR I
ENCODING 73
SWIDTH 360 0
DWIDTH 9 0
BBX 5 15 2 0
BITMAP
F8
20
20
20
20
20
20
20
20
20
20
20
20
20
F8
ENDCHAR

STARTCHAR J
ENCODING 74
SWIDTH 360 0
DWIDTH 9 0
BBX 7 15 1 0
BITMAP
1E
04
04
04
04
04
04
04
04
04
84
84
84
84
78
ENDCHAR

STARTCHAR K
ENCODING 75
SWIDTH 360 0
DWIDTH 9 0
BBX 7 15 1 0
BITMAP
E6
44
44
48
48
50
60
50
50
48
48
44
44
44
E6
ENDCHAR

STARTCHAR L
ENCODING 76
SWIDTH 360 0
DWIDTH 9 0
BBX 7 15 1 0
BITMAP
E0
40
40
40
40
40
40
40
40
40
40
40
40
42
FE
ENDCHAR

STARTCHAR M
ENCODING 77
SWIDTH 360 0
DWIDTH 9 0
BBX 8 15 0 0
BITMAP
C3
42
42
66
66
5A
5A
5A
42
42
42
42
42
42
E7
ENDCHAR

STARTCHAR N
ENCODING 78
SWIDTH 360 0
DWIDTH 9 0
BBX 8 15 0 0
BITMAP
C7
42
62
62
52
52
52
52
4A
4A
4A
46
46
42
E2
ENDCHAR

STARTCHAR O
ENCODING 79
SWIDTH 360 0
DWIDTH 9 0
BBX 6 15 1 0
BITMAP
78
84
84
84
84
84
84
84
84
84
84
84
84
84
78
ENDCHAR

STARTCHAR P
ENCODING 80
SWIDTH 360 0
DWIDTH 9 0
BBX 7 15 1 0
BITMAP
FC
42
42
42
42
42
42
7C
40
40
40
40
40
40
F0
ENDCHAR

STARTCHAR Q
ENCODING 81
SWIDTH 360 0
DWIDTH 9 0
BBX 6 18 1 -3
BITMAP
78
84
84
84
84
84
84
84
84
84
84
84
84
84
78
40
64
98
ENDCHAR

STARTCHAR R
ENCODING 82
SWIDTH 360 0
DWIDTH 9 0
BBX 8 15 1 0
BITMAP
FC
42
42
42
42
42
42
7C
44
44
44
42
42
42
E3
ENDCHAR

STARTCHAR S
ENCODING 83
SWIDTH 360 0
DWIDTH 9 0
BBX 6 15 1 0
BITMAP
7C
84
84
80
80
80
80
78
04
04
04
04
84
84
F8
ENDCHAR

STARTCHAR T
ENCODING 84
SWIDTH 360 0
DWIDTH 9 0
BBX 9 15 0 0
BITMAP
FF80
8880
8880
0800
0800
0800
0800
0800
0800
0800
0800
0800
0800
0800
1C00
ENDCHAR

STARTCHAR U
ENCODING 85
SWIDTH 360 0
DWIDTH 9 0
BBX 8 15 0 0
BITMAP
E7
42
42
42
42
42
42
42
42
42
42
42
42
42
3C
ENDCHAR

STARTCHAR V
ENCODING 86
SWIDTH 360 0
DWIDTH 9 0
BBX 8 15 0 0
BITMAP
C3
42
42
42
42
42
24
24
24
24
24
24
18
18
18
ENDCHAR

STARTCHAR W
ENCODING 87
SWIDTH 360 0
DWIDTH 9 0
BBX 9 15 0 0
BITMAP
E380
4100
4100
4900
4900
4900
4900
5500
5500
5500
5500
2200
2200
2200
2200
ENDCHAR

STARTCHAR X
ENCODING 88
SWIDTH 360 0
DWIDTH 9 0
BBX 8 15 0 0
BITMAP
C3
42
42
24
24
24
18
18
24
24
24
42
42
42
C3
ENDCHAR

STARTCHAR Y
ENCODING 89
SWIDTH 360 0
DWIDTH 9 0
BBX 7 15 1 0
BITMAP
EE
44
44
44
44
44
28
28
10
10
10
10
10
10
38
ENDCHAR

STARTCHAR Z
ENCODING 90
SWIDTH 360 0
DWIDTH 9 0
BBX 6 15 1 0
BITMAP
FC
84
84
08
08
10
10
20
20
20
40
40
84
84
FC
ENDCHAR

STARTCHAR bracketleft
ENCODING 91
SWIDTH 360 0
DWIDTH 9 0
BBX 4 17 3 -1
BITMAP
F0
80
80
80
80
80
80
80
80
80
80
80
80
80
80
80
F0
ENDCHAR

STARTCHAR backslash
ENCODING 92
SWIDTH 360 0
DWIDTH 9 0
BBX 5 17 2 -1
BITMAP
80
80
80
40
40
40
40
20
20
20
10
10
10
08
08
08
08
ENDCHAR

STARTCHAR bracketright
ENCODING 93
SWIDTH 360 0
DWIDTH 9 0
BBX 4 17 2 -1
BITMAP
F0
10
10
10
10
10
10
10
10
10
10
10
10
10
10
10
F0
ENDCHAR

STARTCHAR asciicircum
ENCODING 94
SWIDTH 360 0
DWIDTH 9 0
BBX 6 3 1 7
BITMAP
30
48
84
ENDCHAR

STARTCHAR ldblank
ENCODING 95
SWIDTH 360 0
DWIDTH 9 0
BBX 1 1 0 0
BITMAP
00
ENDCHAR

STARTCHAR diamond
ENCODING 96
SWIDTH 360 0
DWIDTH 9 0
BBX 8 15 0 0
BITMAP
18
18
18
3C
3C
7E
7E
FF
7E
7E
3C
3C
18
18
18
ENDCHAR

STARTCHAR checkerboard
ENCODING 97
SWIDTH 360 0
DWIDTH 9 0
BBX 9 25 0 -5
BITMAP
DB00
6D80
DB00
6D80
DB00
6D80
DB00
6D80
DB00
6D80
DB00
6D80
DB00
6D80
DB00
6D80
DB00
6D80
DB00
6D80
DB00
6D80
DB00
6D80
DB00
ENDCHAR

STARTCHAR HT
ENCODING 98
SWIDTH 360 0
DWIDTH 9 0
BBX 7 18 1 -2
BITMAP
90
90
90
90
F0
90
90
90
90
00
3E
08
08
08
08
08
08
08
ENDCHAR

STARTCHAR FF
ENCODING 99
SWIDTH 360 0
DWIDTH 9 0
BBX 7 18 1 -2
BITMAP
F0
80
80
80
F0
80
80
80
80
00
1E
10
10
1E
10
10
10
10
ENDCHAR

STARTCHAR CR
ENCODING 100
SWIDTH 360 0
DWIDTH 9 0
BBX 7 18 1 -2
BITMAP
70
88
88
80
80
80
88
88
70
00
1C
12
12
12
1C
14
12
12
ENDCHAR

STARTCHAR LF
ENCODING 101
SWIDTH 360 0
DWIDTH 9 0
BBX 7 18 1 -2
BITMAP
80
80
80
80
80
80
80
80
F0
00
1E
10
10
1E
10
10
10
10
ENDCHAR

STARTCHAR degree
ENCODING 102
SWIDTH 360 0
DWIDTH 9 0
BBX 6 7 1 10
BITMAP
78
84
84
84
84
84
78
ENDCHAR

STARTCHAR plusminus
ENCODING 103
SWIDTH 360 0
DWIDTH 9 0
BBX 7 13 1 0
BITMAP
10
10
10
10
FE
10
10
10
10
00
00
00
FE
ENDCHAR

STARTCHAR NL
ENCODING 104
SWIDTH 360 0
DWIDTH 9 0
BBX 7 18 1 -2
BITMAP
88
88
C8
C8
A8
A8
98
98
88
00
08
08
08
08
08
08
08
0E
ENDCHAR

STARTCHAR VT
ENCODING 105
SWIDTH 360 0
DWIDTH 9 0
BBX 7 18 1 -2
BITMAP
88
88
88
88
88
88
50
70
20
00
3E
08
08
08
08
08
08
08
ENDCHAR

STARTCHAR ldcornsqlr
ENCODING 106
SWIDTH 360 0
DWIDTH 9 0
BBX 5 13 0 7
BITMAP
18
18
18
18
18
18
18
18
18
18
18
18
F8
ENDCHAR

STARTCHAR ldcornsqur
ENCODING 107
SWIDTH 360 0
DWIDTH 9 0
BBX 5 13 0 -5
BITMAP
F8
18
18
18
18
18
18
18
18
18
18
18
18
ENDCHAR

STARTCHAR ldcornsqul
ENCODING 108
SWIDTH 360 0
DWIDTH 9 0
BBX 6 13 3 -5
BITMAP
FC
C0
C0
C0
C0
C0
C0
C0
C0
C0
C0
C0
C0
ENDCHAR

STARTCHAR ldcornsqll
ENCODING 109
SWIDTH 360 0
DWIDTH 9 0
BBX 6 13 3 7
BITMAP
C0
C0
C0
C0
C0
C0
C0
C0
C0
C0
C0
C0
FC
ENDCHAR

STARTCHAR ldcross
ENCODING 110
SWIDTH 360 0
DWIDTH 9 0
BBX 9 25 0 -5
BITMAP
1800
1800
1800
1800
1800
1800
1800
1800
1800
1800
1800
1800
FF80
1800
1800
1800
1800
1800
1800
1800
1800
1800
1800
1800
1800
ENDCHAR

STARTCHAR ldscan1
ENCODING 111
SWIDTH 360 0
DWIDTH 9 0
BBX 9 1 0 17
BITMAP
FF80
ENDCHAR

STARTCHAR ldscan3
ENCODING 112
SWIDTH 360 0
DWIDTH 9 0
BBX 9 1 0 11
BITMAP
FF80
ENDCHAR

STARTCHAR ldhorizontal
ENCODING 113
SWIDTH 360 0
DWIDTH 9 0
BBX 9 1 0 7
BITMAP
FF80
ENDCHAR

STARTCHAR ldscan7
ENCODING 114
SWIDTH 360 0
DWIDTH 9 0
BBX 9 1 0 0
BITMAP
FF80
ENDCHAR

STARTCHAR ldscan9
ENCODING 115
SWIDTH 360 0
DWIDTH 9 0
BBX 9 1 0 -5
BITMAP
FF80
ENDCHAR

STARTCHAR ldteelft
ENCODING 116
SWIDTH 360 0
DWIDTH 9 0
BBX 6 25 3 -5
BITMAP
C0
C0
C0
C0
C0
C0
C0
C0
C0
C0
C0
C0
FC
C0
C0
C0
C0
C0
C0
C0
C0
C0
C0
C0
C0
ENDCHAR

STARTCHAR ldteert
ENCODING 117
SWIDTH 360 0
DWIDTH 9 0
BBX 5 25 0 -5
BITMAP
18
18
18
18
18
18
18
18
18
18
18
18
F8
18
18
18
18
18
18
18
18
18
18
18
18
ENDCHAR

STARTCHAR ldteebt
ENCODING 118
SWIDTH 360 0
DWIDTH 9 0
BBX 9 13 0 7
BITMAP
1800
1800
1800
1800
1800
1800
1800
1800
1800
1800
1800
1800
FF80
ENDCHAR

STARTCHAR ldteetp
ENCODING 119
SWIDTH 360 0
DWIDTH 9 0
BBX 9 13 0 -5
BITMAP
FF80
1800
1800
1800
1800
1800
1800
1800
1800
1800
1800
1800
1800
ENDCHAR

STARTCHAR ldvertical
ENCODING 120
SWIDTH 360 0
DWIDTH 9 0
BBX 2 25 3 -5
BITMAP
C0
C0
C0
C0
C0
C0
C0
C0
C0
C0
C0
C0
C0
C0
C0
C0
C0
C0
C0
C0
C0
C0
C0
C0
C0
ENDCHAR

STARTCHAR lessequal
ENCODING 121
SWIDTH 360 0
DWIDTH 9 0
BBX 6 11 1 1
BITMAP
04
18
60
80
60
18
04
00
00
00
FC
ENDCHAR

STARTCHAR greaterequal
ENCODING 122
SWIDTH 360 0
DWIDTH 9 0
BBX 6 11 1 1
BITMAP
80
60
18
04
18
60
80
00
00
00
FC
ENDCHAR

STARTCHAR pi
ENCODING 123
SWIDTH 360 0
DWIDTH 9 0
BBX 7 12 1 0
BITMAP
FE
44
44
44
44
84
88
88
88
88
88
8C
ENDCHAR

STARTCHAR notequal
ENCODING 124
SWIDTH 360 0
DWIDTH 9 0
BBX 7 10 1 2
BITMAP
08
08
08
FE
10
10
FE
20
20
20
ENDCHAR

STARTCHAR sterling
ENCODING 125
SWIDTH 360 0
DWIDTH 9 0
BBX 7 15 1 0
BITMAP
38
44
44
44
40
20
10
7E
10
10
10
20
22
72
8C
ENDCHAR

STARTCHAR periodcentered
ENCODING 126
SWIDTH 360 0
DWIDTH 9 0
BBX 3 3 3 6
BITMAP
40
E0
40
ENDCHAR

STARTCHAR Error
ENCODING 159
SWIDTH 360 0
DWIDTH 9 0
BBX 9 25 0 -5
BITMAP
3E00
7F00
FF80
E380
E380
E000
E000
F000
7800
3C00
1C00
1C00
1C00
1C00
1C00
1C00
1C00
1C00
0000
0000
0000
1C00
1C00
1C00
1C00
ENDCHAR

STARTCHAR ldradicalbt
ENCODING 161
SWIDTH 360 0
DWIDTH 9 0
BBX 5 16 0 4
BITMAP
18
18
18
18
18
18
18
18
18
18
18
98
58
38
18
18
ENDCHAR

STARTCHAR ldradicaltp
ENCODING 162
SWIDTH 360 0
DWIDTH 9 0
BBX 6 12 3 -5
BITMAP
FC
C0
C0
C0
C0
C0
C0
C0
C0
C0
C0
C0
ENDCHAR

STARTCHAR ldhorizontal
ENCODING 163
SWIDTH 360 0
DWIDTH 9 0
BBX 9 1 0 6
BITMAP
FF80
ENDCHAR

STARTCHAR ldintegraltp
ENCODING 164
SWIDTH 360 0
DWIDTH 9 0
BBX 5 23 3 -5
BITMAP
78
C0
C0
C0
C0
C0
C0
C0
C0
C0
C0
C0
C0
C0
C0
C0
C0
C0
C0
C0
C0
C0
C0
ENDCHAR

STARTCHAR ldintegralbt
ENCODING 165
SWIDTH 360 0
DWIDTH 9 0
BBX 5 24 0 -4
BITMAP
18
18
18
18
18
18
18
18
18
18
18
18
18
18
18
18
18
18
18
18
18
18
18
F0
ENDCHAR

STARTCHAR ldvertical
ENCODING 166
SWIDTH 360 0
DWIDTH 9 0
BBX 2 25 3 -5
BITMAP
C0
C0
C0
C0
C0
C0
C0
C0
C0
C0
C0
C0
C0
C0
C0
C0
C0
C0
C0
C0
C0
C0
C0
C0
C0
ENDCHAR

STARTCHAR ldbracketlfttp
ENCODING 167
SWIDTH 360 0
DWIDTH 9 0
BBX 5 23 3 -5
BITMAP
F8
C0
C0
C0
C0
C0
C0
C0
C0
C0
C0
C0
C0
C0
C0
C0
C0
C0
C0
C0
C0
C0
C0
ENDCHAR

STARTCHAR ldbracketlftbt
ENCODING 168
SWIDTH 360 0
DWIDTH 9 0
BBX 5 24 3 -4
BITMAP
C0
C0
C0
C0
C0
C0
C0
C0
C0
C0
C0
C0
C0
C0
C0
C0
C0
C0
C0
C0
C0
C0
C0
F8
ENDCHAR

STARTCHAR ldbracketrttp
ENCODING 169
SWIDTH 360 0
DWIDTH 9 0
BBX 5 23 0 -5
BITMAP
F8
18
18
18
18
18
18
18
18
18
18
18
18
18
18
18
18
18
18
18
18
18
18
ENDCHAR

STARTCHAR ldbracketrtbt
ENCODING 170
SWIDTH 360 0
DWIDTH 9 0
BBX 5 24 0 -4
BITMAP
18
18
18
18
18
18
18
18
18
18
18
18
18
18
18
18
18
18
18
18
18
18
18
F8
ENDCHAR

STARTCHAR ldbracelfttp
ENCODING 171
SWIDTH 360 0
DWIDTH 9 0
BBX 5 23 3 -5
BITMAP
38
60
C0
C0
C0
C0
C0
C0
C0
C0
C0
C0
C0
C0
C0
C0
C0
C0
C0
C0
C0
C0
C0
ENDCHAR

STARTCHAR ldbracelftbt
ENCODING 172
SWIDTH 360 0
DWIDTH 9 0
BBX 5 24 3 -4
BITMAP
C0
C0
C0
C0
C0
C0
C0
C0
C0
C0
C0
C0
C0
C0
C0
C0
C0
C0
C0
C0
C0
C0
60
38
ENDCHAR

STARTCHAR ldbracerttp
ENCODING 173
SWIDTH 360 0
DWIDTH 9 0
BBX 5 23 0 -5
BITMAP
E0
30
18
18
18
18
18
18
18
18
18
18
18
18
18
18
18
18
18
18
18
18
18
ENDCHAR

STARTCHAR ldbracertbt
ENCODING 174
SWIDTH 360 0
DWIDTH 9 0
BBX 5 24 0 -4
BITMAP
18
18
18
18
18
18
18
18
18
18
18
18
18
18
18
18
18
18
18
18
18
30
60
C0
ENDCHAR

STARTCHAR ldbracelftmid
ENCODING 175
SWIDTH 360 0
DWIDTH 9 0
BBX 4 25 1 -5
BITMAP
30
30
30
30
30
30
30
30
30
30
30
30
60
C0
60
30
30
30
30
30
30
30
30
30
30
ENDCHAR

STARTCHAR ldbracertmid
ENCODING 176
SWIDTH 360 0
DWIDTH 9 0
BBX 4 25 3 -5
BITMAP
C0
C0
C0
C0
C0
C0
C0
C0
C0
C0
C0
C0
60
30
60
C0
C0
C0
C0
C0
C0
C0
C0
C0
C0
ENDCHAR

STARTCHAR ldsigmalfttp
ENCODING 177
SWIDTH 360 0
DWIDTH 9 0
BBX 5 12 4 -5
BITMAP
F8
80
C0
C0
60
60
30
30
30
18
18
08
ENDCHAR

STARTCHAR ldsigmalftbt
ENCODING 178
SWIDTH 360 0
DWIDTH 9 0
BBX 6 14 3 6
BITMAP
0C
0C
08
18
18
10
30
30
60
60
60
C0
C0
FC
ENDCHAR

STARTCHAR ldbackslash
ENCODING 179
SWIDTH 360 0
DWIDTH 9 0
BBX 9 25 0 -5
BITMAP
8000
C000
C000
4000
6000
6000
2000
3000
3000
1000
1800
1800
1800
0800
0C00
0C00
0600
0600
0600
0200
0300
0300
0100
0180
0180
ENDCHAR

STARTCHAR ldslash
ENCODING 180
SWIDTH 360 0
DWIDTH 9 0
BBX 9 25 0 -5
BITMAP
0180
0180
0180
0300
0300
0200
0600
0600
0400
0C00
0C00
0C00
0800
1800
1800
3000
3000
3000
2000
6000
6000
C000
C000
C000
8000
ENDCHAR

STARTCHAR ldsigmarttp
ENCODING 181
SWIDTH 360 0
DWIDTH 9 0
BBX 8 4 0 3
BITMAP
FF
01
01
01
ENDCHAR

STARTCHAR ldsigmartbt
ENCODING 182
SWIDTH 360 0
DWIDTH 9 0
BBX 8 4 0 6
BITMAP
01
01
01
FF
ENDCHAR

STARTCHAR ldsigmamid
ENCODING 183
SWIDTH 360 0
DWIDTH 9 0
BBX 5 25 0 -5
BITMAP
C0
C0
C0
60
60
60
30
30
30
18
18
18
18
18
18
18
30
30
30
60
60
60
C0
C0
C0
ENDCHAR

STARTCHAR lessequal
ENCODING 188
SWIDTH 360 0
DWIDTH 9 0
BBX 6 11 1 1
BITMAP
04
18
60
80
60
18
04
00
00
00
FC
ENDCHAR

STARTCHAR notequal
ENCODING 189
SWIDTH 360 0
DWIDTH 9 0
BBX 7 10 1 2
BITMAP
08
08
08
FE
10
10
FE
20
20
20
ENDCHAR

STARTCHAR greaterequal
ENCODING 190
SWIDTH 360 0
DWIDTH 9 0
BBX 6 11 1 1
BITMAP
80
60
18
04
18
60
80
00
00
00
FC
ENDCHAR

STARTCHAR integral
ENCODING 191
SWIDTH 360 0
DWIDTH 9 0
BBX 8 24 0 -5
BITMAP
0E
19
18
18
18
18
18
18
18
18
18
18
18
18
18
18
18
18
18
18
18
18
98
70
ENDCHAR

STARTCHAR therefore
ENCODING 192
SWIDTH 360 0
DWIDTH 9 0
BBX 9 11 0 0
BITMAP
0800
1C00
0800
0000
0000
0000
0000
0000
4100
E380
4100
ENDCHAR

STARTCHAR proportional
ENCODING 193
SWIDTH 360 0
DWIDTH 9 0
BBX 7 9 1 3
BITMAP
66
98
90
90
90
90
90
98
66
ENDCHAR

STARTCHAR infinity
ENCODING 194
SWIDTH 360 0
DWIDTH 9 0
BBX 7 9 1 3
BITMAP
6C
92
92
92
92
92
92
92
6C
ENDCHAR

STARTCHAR divide
ENCODING 195
SWIDTH 360 0
DWIDTH 9 0
BBX 7 9 1 3
BITMAP
38
38
00
00
FE
00
00
38
38
ENDCHAR

STARTCHAR Delta
ENCODING 196
SWIDTH 360 0
DWIDTH 9 0
BBX 8 15 0 0
BITMAP
18
18
18
24
24
24
24
24
42
42
42
42
42
42
FF
ENDCHAR

STARTCHAR gradient
ENCODING 197
SWIDTH 360 0
DWIDTH 9 0
BBX 8 15 0 0
BITMAP
FF
42
42
42
42
42
42
24
24
24
24
24
18
18
18
ENDCHAR

STARTCHAR Phi
ENCODING 198
SWIDTH 360 0
DWIDTH 9 0
BBX 7 15 1 0
BITMAP
7C
10
10
7C
92
92
92
92
92
92
92
7C
10
10
7C
ENDCHAR

STARTCHAR Gamma
ENCODING 199
SWIDTH 360 0
DWIDTH 9 0
BBX 7 15 1 0
BITMAP
FE
42
42
40
40
40
40
40
40
40
40
40
40
40
F8
ENDCHAR

STARTCHAR similar
ENCODING 200
SWIDTH 360 0
DWIDTH 9 0
BBX 7 3 1 7
BITMAP
62
FE
8C
ENDCHAR

STARTCHAR approxequal
ENCODING 201
SWIDTH 360 0
DWIDTH 9 0
BBX 7 6 1 4
BITMAP
62
FE
8C
00
00
FE
ENDCHAR

STARTCHAR Theta
ENCODING 202
SWIDTH 360 0
DWIDTH 9 0
BBX 6 15 1 0
BITMAP
78
84
84
84
84
B4
B4
B4
84
84
84
84
84
84
78
ENDCHAR

STARTCHAR multiply
ENCODING 203
SWIDTH 360 0
DWIDTH 9 0
BBX 6 8 1 3
BITMAP
84
48
48
30
30
48
48
84
ENDCHAR

STARTCHAR Lambda
ENCODING 204
SWIDTH 360 0
DWIDTH 9 0
BBX 8 15 0 0
BITMAP
18
18
18
24
24
24
24
24
42
42
42
42
42
42
C3
ENDCHAR

STARTCHAR arrowdblboth
ENCODING 205
SWIDTH 360 0
DWIDTH 9 0
BBX 9 6 0 4
BITMAP
2200
7F00
C180
C180
7F00
2200
ENDCHAR

STARTCHAR arrowdblright
ENCODING 206
SWIDTH 360 0
DWIDTH 9 0
BBX 7 8 1 3
BITMAP
10
08
FC
06
06
FC
08
10
ENDCHAR

STARTCHAR equivalence
ENCODING 207
SWIDTH 360 0
DWIDTH 9 0
BBX 7 9 1 2
BITMAP
FE
00
00
00
FE
00
00
00
FE
ENDCHAR

STARTCHAR Pi
ENCODING 208
SWIDTH 360 0
DWIDTH 9 0
BBX 8 15 0 0
BITMAP
FF
42
42
42
42
42
42
42
42
42
42
42
42
42
E7
ENDCHAR

STARTCHAR Psi
ENCODING 209
SWIDTH 360 0
DWIDTH 9 0
BBX 7 15 1 0
BITMAP
7C
10
10
92
92
92
92
92
92
92
7C
10
10
10
7C
ENDCHAR

STARTCHAR Sigma
ENCODING 211
SWIDTH 360 0
DWIDTH 9 0
BBX 7 15 1 0
BITMAP
FE
42
42
22
20
20
10
10
10
20
20
22
42
42
FE
ENDCHAR

STARTCHAR radical
ENCODING 214
SWIDTH 360 0
DWIDTH 9 0
BBX 9 20 0 -3
BITMAP
0080
0080
0080
0100
0100
0100
8200
8200
8200
4200
4400
4400
4400
2400
2800
2800
1800
1000
1000
1000
ENDCHAR

STARTCHAR Omega
ENCODING 215
SWIDTH 360 0
DWIDTH 9 0
BBX 6 15 1 0
BITMAP
78
84
84
84
84
84
84
84
84
48
48
48
48
48
CC
ENDCHAR

STARTCHAR Xi
ENCODING 216
SWIDTH 360 0
DWIDTH 9 0
BBX 6 15 1 0
BITMAP
FC
84
84
00
00
00
48
78
48
00
00
00
84
84
FC
ENDCHAR

STARTCHAR Upsilon1
ENCODING 217
SWIDTH 360 0
DWIDTH 9 0
BBX 7 15 1 0
BITMAP
82
44
44
44
28
28
28
10
10
10
10
10
10
10
7C
ENDCHAR

STARTCHAR propersubset
ENCODING 218
SWIDTH 360 0
DWIDTH 9 0
BBX 7 10 1 2
BITMAP
3E
40
80
80
80
80
80
80
40
3E
ENDCHAR

STARTCHAR propersuperset
ENCODING 219
SWIDTH 360 0
DWIDTH 9 0
BBX 7 10 1 2
BITMAP
F8
04
02
02
02
02
02
02
04
F8
ENDCHAR

STARTCHAR intersection
ENCODING 220
SWIDTH 360 0
DWIDTH 9 0
BBX 6 11 1 1
BITMAP
78
84
84
84
84
84
84
84
84
84
84
ENDCHAR

STARTCHAR union
ENCODING 221
SWIDTH 360 0
DWIDTH 9 0
BBX 6 11 1 1
BITMAP
84
84
84
84
84
84
84
84
84
84
78
ENDCHAR

STARTCHAR logicaland
ENCODING 222
SWIDTH 360 0
DWIDTH 9 0
BBX 6 13 1 0
BITMAP
30
30
30
48
48
48
48
84
84
84
84
84
84
ENDCHAR

STARTCHAR logicalor
ENCODING 223
SWIDTH 360 0
DWIDTH 9 0
BBX 6 13 1 0
BITMAP
84
84
84
84
84
84
48
48
48
48
30
30
30
ENDCHAR

STARTCHAR logicalnot
ENCODING 224
SWIDTH 360 0
DWIDTH 9 0
BBX 7 3 1 6
BITMAP
FE
02
02
ENDCHAR

STARTCHAR alpha
ENCODING 225
SWIDTH 360 0
DWIDTH 9 0
BBX 7 12 1 0
BITMAP
32
4A
46
84
84
84
84
84
84
86
4A
32
ENDCHAR

STARTCHAR beta
ENCODING 226
SWIDTH 360 0
DWIDTH 9 0
BBX 7 20 0 -4
BITMAP
1C
22
22
22
22
22
22
3C
42
42
42
42
42
44
44
78
80
80
80
80
ENDCHAR

STARTCHAR chi
ENCODING 227
SWIDTH 360 0
DWIDTH 9 0
BBX 7 16 0 -4
BITMAP
66
22
24
24
24
24
18
10
38
28
24
24
44
44
44
C6
ENDCHAR

STARTCHAR delta
ENCODING 228
SWIDTH 360 0
DWIDTH 9 0
BBX 6 16 1 0
BITMAP
1C
20
20
10
08
38
44
44
84
84
84
84
88
88
88
70
ENDCHAR

STARTCHAR epsilon
ENCODING 229
SWIDTH 360 0
DWIDTH 9 0
BBX 6 12 1 0
BITMAP
1C
20
40
40
40
FC
80
80
80
80
40
3C
ENDCHAR

STARTCHAR phi
ENCODING 230
SWIDTH 360 0
DWIDTH 9 0
BBX 8 18 0 -3
BITMAP
08
08
08
3E
49
49
49
49
49
91
92
92
92
92
7C
10
10
10
ENDCHAR

STARTCHAR gamma
ENCODING 231
SWIDTH 360 0
DWIDTH 9 0
BBX 6 16 1 -4
BITMAP
84
84
84
88
48
48
48
48
30
30
20
20
20
40
40
40
ENDCHAR

STARTCHAR eta
ENCODING 232
SWIDTH 360 0
DWIDTH 9 0
BBX 7 16 1 -4
BITMAP
DC
62
42
42
42
42
84
84
84
84
84
88
08
08
08
08
ENDCHAR

STARTCHAR iota
ENCODING 233
SWIDTH 360 0
DWIDTH 9 0
BBX 6 12 1 0
BITMAP
E0
20
20
20
20
20
40
40
40
44
44
38
ENDCHAR

STARTCHAR theta
ENCODING 234
SWIDTH 360 0
DWIDTH 9 0
BBX 6 16 1 0
BITMAP
38
44
44
44
44
84
84
FC
84
84
84
88
88
88
88
70
ENDCHAR

STARTCHAR kappa
ENCODING 235
SWIDTH 360 0
DWIDTH 9 0
BBX 6 12 1 0
BITMAP
44
44
48
48
48
70
90
90
88
88
84
84
ENDCHAR

STARTCHAR lambda
ENCODING 236
SWIDTH 360 0
DWIDTH 9 0
BBX 7 15 1 0
BITMAP
40
40
20
20
10
30
28
48
48
44
44
84
84
84
86
ENDCHAR

STARTCHAR nu
ENCODING 238
SWIDTH 360 0
DWIDTH 9 0
BBX 6 12 1 0
BITMAP
C4
44
44
44
44
44
4C
48
48
50
70
40
ENDCHAR

STARTCHAR partialdiff
ENCODING 239
SWIDTH 360 0
DWIDTH 9 0
BBX 6 16 1 0
BITMAP
70
08
08
04
04
3C
44
44
84
84
84
84
88
88
88
70
ENDCHAR

STARTCHAR pi
ENCODING 240
SWIDTH 360 0
DWIDTH 9 0
BBX 7 12 1 0
BITMAP
FE
44
44
44
44
84
88
88
88
88
88
8C
ENDCHAR

STARTCHAR psi
ENCODING 241
SWIDTH 360 0
DWIDTH 9 0
BBX 8 18 0 -4
BITMAP
04
04
45
4D
49
49
49
49
89
99
92
92
92
7C
20
20
20
20
ENDCHAR

STARTCHAR rho
ENCODING 242
SWIDTH 360 0
DWIDTH 9 0
BBX 6 16 1 -4
BITMAP
38
44
44
44
84
84
84
84
84
88
88
F0
80
80
80
80
ENDCHAR

STARTCHAR sigma
ENCODING 243
SWIDTH 360 0
DWIDTH 9 0
BBX 7 12 1 0
BITMAP
3E
44
44
44
84
84
84
84
88
88
88
70
ENDCHAR

STARTCHAR tau
ENCODING 244
SWIDTH 360 0
DWIDTH 9 0
BBX 6 12 1 0
BITMAP
FC
20
20
20
20
20
40
40
40
44
44
38
ENDCHAR

STARTCHAR florin
ENCODING 246
SWIDTH 360 0
DWIDTH 9 0
BBX 7 19 1 -4
BITMAP
06
08
08
08
08
7E
10
10
10
10
10
30
20
20
20
20
20
20
C0
ENDCHAR

STARTCHAR omega
ENCODING 247
SWIDTH 360 0
DWIDTH 9 0
BBX 7 12 1 0
BITMAP
44
82
92
92
92
92
92
92
92
92
92
6C
ENDCHAR

STARTCHAR xi
ENCODING 248
SWIDTH 360 0
DWIDTH 9 0
BBX 7 20 2 -5
BITMAP
7E
08
10
20
60
40
40
38
40
80
80
80
80
C0
78
04
04
04
04
18
ENDCHAR

STARTCHAR upsilon
ENCODING 249
SWIDTH 360 0
DWIDTH 9 0
BBX 6 12 1 0
BITMAP
CC
84
84
84
84
84
84
84
88
88
88
70
ENDCHAR

STARTCHAR zeta
ENCODING 250
SWIDTH 360 0
DWIDTH 9 0
BBX 7 20 2 -5
BITMAP
7E
04
08
10
20
20
40
40
80
80
80
80
80
C0
78
04
04
04
04
18
ENDCHAR

STARTCHAR arrowleft
ENCODING 251
SWIDTH 360 0
DWIDTH 9 0
BBX 8 7 1 3
BITMAP
10
20
40
FF
40
20
10
ENDCHAR

STARTCHAR arrowup
ENCODING 252
SWIDTH 360 0
DWIDTH 9 0
BBX 7 13 1 1
BITMAP
10
38
54
92
10
10
10
10
10
10
10
10
10
ENDCHAR

STARTCHAR arrowright
ENCODING 253
SWIDTH 360 0
DWIDTH 9 0
BBX 7 7 0 3
BITMAP
10
08
04
FE
04
08
10
ENDCHAR

STARTCHAR arrowdown
ENCODING 254
SWIDTH 360 0
DWIDTH 9 0
BBX 7 13 1 1
BITMAP
10
10
10
10
10
10
10
10
10
92
54
38
10
ENDCHAR
ENDFONT
